# xmcd CD database file
#
# Track frame offsets:
#	150
#	22052
#	42967
#	57195
#	78175
#	93577
#	110112
#	129107
#	157730
#	173362
#	196492
#	212197
#	229822
#
# Disc length: 3349 seconds
#
# Revision: 5
# Processed by: cddbd v1.5.2PL0 Copyright (c) Steve Scherf et al.
# Submitted via: CDex 1.51
#
DISCID=a20d130d
DTITLE=Jody Williams - Return Of A Legend
DYEAR=2001
DGENRE=Blues
TTITLE0=Lucky Lou
TTITLE1=Come Over To My House
TTITLE2=Lifelong Lover
TTITLE3=You May
TTITLE4=Moanin' For Molasses
TTITLE5=Monkey Business
TTITLE6=I'm Coming Back Again
TTITLE7=She Found A Fool And Bumped His Head
TTITLE8=Jive Spot
TTITLE9=Brown Eyes And Big Thighs
TTITLE10=Wham Bam Thank You Ma'Am
TTITLE11=What You Gonna Do!
TTITLE12=Henpecked And Happy
EXTD=YEAR: 2001
EXTT0=
EXTT1=
EXTT2=
EXTT3=
EXTT4=
EXTT5=
EXTT6=
EXTT7=
EXTT8=
EXTT9=
EXTT10=
EXTT11=
EXTT12=
PLAYORDER=
